<svg xmlns="http://www.w3.org/2000/svg" viewBox="0 0 32 32">
    <path stroke-width=".667" d="M14.937 4.453c6.577-.614 12.405 4.224 13.012 10.802s-4.237 12.4-10.815 13c-6.569.6-12.381-4.236-12.987-10.804S8.37 5.065 14.938 4.453zm2.385 22.537c5.872-.705 10.059-6.038 9.35-11.909S20.628 5.026 14.757 5.738C8.892 6.45 4.712 11.779 5.42 17.645s6.035 10.049 11.902 9.345z"/>
    <path stroke-width=".667" d="m20.726 10.134 1.376-.009c.027 3.971.029 7.942.006 11.912l-1.423.018-.002-7.461-.007-2.043c-.795 1.508-1.697 2.958-2.556 4.429-.545.933-1.051 2.003-1.725 2.841a.888.888 0 0 1-.503.025.749.749 0 0 1-.211-.089c-.364-.29-3.783-6.297-4.329-7.208.14 1.08.052 2.259.052 3.349l-.004 6.127-1.455.005c.045-3.964-.026-7.931.012-11.896l1.584.008c.704 1.259 1.46 2.492 2.19 3.737.776 1.323 1.532 2.661 2.357 3.954.839-1.532 1.777-3.017 2.679-4.514.639-1.06 1.243-2.176 1.959-3.186z"/>
</svg>