<svg xmlns="http://www.w3.org/2000/svg" aria-hidden="true" style="position:absolute;width:0;height:0;overflow:hidden">
  <defs>
    <symbol id="icon-arrow-back" viewBox="0 0 32 32">
      <path d="M28 14.667H8.552l7.057-7.057-1.885-1.885L3.448 16.001l10.276 10.276 1.885-1.885-7.057-7.057H28v-2.667z"/>
    </symbol>

    <symbol id="icon-chevron-down" viewBox="0 0 32 32">
      <path d="M21.724 11.057 16 16.781l-5.724-5.724-1.885 1.885L16 20.551l7.609-7.609-1.885-1.885z"/>
    </symbol>

    <symbol id="icon-chevron-left" viewBox="0 0 32 32">
      <path d="M17.724 8.391 10.115 16l7.609 7.609 1.885-1.885L13.885 16l5.724-5.724-1.885-1.885z"/>
    </symbol>

    <symbol id="icon-chevron-right" viewBox="0 0 32 32">
      <path d="m12.943 22.599 7.609-7.609-7.609-7.609-1.885 1.885 5.724 5.724-5.724 5.724 1.885 1.885z"/>
    </symbol>

    <symbol id="icon-chevron-up" viewBox="0 0 32 32">
      <path d="m8.391 19.057 1.885 1.885L16 15.218l5.724 5.724 1.885-1.885L16 11.448l-7.609 7.609z"/>
    </symbol>

    <symbol id="icon-down-arrow-alt" viewBox="0 0 32 32">
      <path d="m24.943 16.943-1.885-1.885-5.724 5.724V8.001h-2.667v12.781l-5.724-5.724-1.885 1.885 8.943 8.943 8.943-8.943z"/>
    </symbol>

    <symbol id="icon-facebook" viewBox="0 0 32 32">
      <path d="M29.333 16.405C29.333 8.996 23.364 2.99 16 2.99S2.667 8.996 2.667 16.405c0 6.696 4.876 12.245 11.25 13.252v-9.374h-3.385v-3.878h3.385V13.45c0-3.362 1.991-5.219 5.036-5.219 1.459 0 2.985.262 2.985.262v3.301h-1.681c-1.656 0-2.173 1.034-2.173 2.095v2.516h3.698l-.591 3.878h-3.107v9.374c6.374-1.006 11.25-6.556 11.25-13.252z"/>
    </symbol>

    <symbol id="icon-instagram" viewBox="0 0 32 32">
      <path d="M15.998 6.161c3.206 0 3.585.014 4.846.071 1.172.052 1.804.248 2.226.412.558.216.961.478 1.378.895.422.422.679.82.9 1.378.164.422.361 1.059.412 2.226.056 1.266.071 1.645.071 4.847s-.014 3.585-.071 4.847c-.052 1.172-.248 1.804-.412 2.227a3.702 3.702 0 0 1-.895 1.377c-.422.422-.82.679-1.378.9-.422.164-1.06.361-2.226.412-1.266.056-1.645.071-4.847.071s-3.585-.014-4.847-.071c-1.172-.052-1.804-.248-2.226-.412a3.714 3.714 0 0 1-1.378-.895 3.767 3.767 0 0 1-.9-1.378c-.164-.422-.361-1.06-.412-2.226-.056-1.266-.071-1.645-.071-4.847s.014-3.585.071-4.847c.052-1.172.248-1.804.412-2.226.216-.558.478-.961.895-1.378.422-.422.82-.679 1.378-.9.422-.164 1.059-.361 2.226-.412 1.261-.056 1.641-.071 4.847-.071h.001zm0-2.16c-3.258 0-3.665.014-4.945.071-1.275.056-2.151.262-2.91.558a5.847 5.847 0 0 0-2.127 1.387A5.883 5.883 0 0 0 4.629 8.14c-.295.764-.502 1.636-.558 2.91C4.015 12.335 4 12.742 4 15.999s.014 3.665.071 4.945c.056 1.275.262 2.151.558 2.91a5.86 5.86 0 0 0 1.387 2.127 5.876 5.876 0 0 0 2.123 1.383c.764.295 1.636.502 2.91.558 1.279.056 1.687.071 4.945.071s3.666-.014 4.945-.071c1.275-.056 2.151-.262 2.91-.558.787-.305 1.458-.717 2.123-1.383s1.078-1.336 1.383-2.123c.295-.764.502-1.635.558-2.91.056-1.279.071-1.687.071-4.945s-.014-3.665-.071-4.945c-.056-1.275-.262-2.151-.558-2.91a5.622 5.622 0 0 0-1.373-2.133 5.876 5.876 0 0 0-2.123-1.383c-.764-.295-1.635-.502-2.91-.558-1.284-.061-1.692-.075-4.949-.075L15.999 4z"/>
      <path d="M15.998 9.836a6.164 6.164 0 1 0 6.163 6.163 6.164 6.164 0 0 0-6.163-6.163zm0 10.161a3.998 3.998 0 1 1 0-7.996 3.998 3.998 0 0 1 0 7.996zM23.843 9.592a1.439 1.439 0 1 1-2.877 0 1.439 1.439 0 0 1 2.877 0z"/>
    </symbol>

    <symbol id="icon-left-arrow-alt" viewBox="0 0 32 32">
      <path d="m16.943 23.057-5.724-5.724H24v-2.667H11.219l5.724-5.724-1.885-1.885L6.115 16l8.943 8.943 1.885-1.885z"/>
    </symbol>

    <symbol id="icon-menu" viewBox="0 0 32 32">
      <path d="M5.333 8h21.333v2.667H5.333V8zm0 6.667h21.333v2.667H5.333v-2.667zm0 6.666h21.333V24H5.333v-2.667z"/>
    </symbol>

    <symbol id="icon-minus" viewBox="0 0 32 32">
      <path d="M6.667 14.667h18.667v2.667H6.667v-2.667z"/>
    </symbol>

    <symbol id="icon-plus" viewBox="0 0 32 32">
      <path d="M25.333 14.667h-8v-8h-2.667v8h-8v2.667h8v8h2.667v-8h8v-2.667z"/>
    </symbol>

    <symbol id="icon-right-arrow-alt" viewBox="0 0 32 32">
      <path d="m15.057 23.057 1.885 1.885 8.943-8.943-8.943-8.943-1.885 1.885 5.724 5.724H8v2.667h12.781l-5.724 5.724z"/>
    </symbol>

    <symbol id="icon-star-blank" viewBox="0 0 32 32">
      <path d="M8.688 19.097 6.701 27.7a1.326 1.326 0 0 0 .538 1.4 1.327 1.327 0 0 0 1.501.009l7.26-4.84 7.26 4.84a1.333 1.333 0 0 0 1.525-.034 1.34 1.34 0 0 0 .498-1.441l-2.439-8.533 6.048-5.443a1.332 1.332 0 0 0-.073-2.043 1.339 1.339 0 0 0-.714-.277l-7.601-.605-3.289-7.281A1.327 1.327 0 0 0 16 2.665a1.33 1.33 0 0 0-1.215.787l-3.289 7.281-7.601.604a1.333 1.333 0 0 0-.825 2.284l5.619 5.476zm3.804-5.768a1.329 1.329 0 0 0 1.11-.782l2.399-5.308 2.399 5.308a1.33 1.33 0 0 0 1.11.782l5.296.42-4.361 3.925a1.336 1.336 0 0 0-.391 1.357l1.671 5.847-4.981-3.321a1.325 1.325 0 0 0-1.478 0l-5.205 3.471 1.4-6.061a1.343 1.343 0 0 0-.368-1.254l-4.051-3.949 5.453-.435z"/>
    </symbol>

    <symbol id="icon-up-arrow-alt" viewBox="0 0 32 32">
      <path d="M14.667 11.219V24h2.667V11.219l5.724 5.724 1.885-1.885L16 6.115l-8.943 8.943 1.885 1.885 5.724-5.724z"/>
    </symbol>

    <symbol id="icon-cross" viewBox="0 0 32 32">
      <path d="m21.589 8.459-5.657 5.656-5.656-5.656-1.885 1.885L14.047 16l-5.656 5.656 1.885 1.885 5.656-5.656 5.657 5.656 1.885-1.885L17.818 16l5.656-5.656-1.885-1.885z"/>
    </symbol>

    <symbol id="icon-youtube" viewBox="0 0 32 32">
      <path d="M28.791 9.604a3.345 3.345 0 0 0-2.35-2.354C24.353 6.677 16 6.667 16 6.667s-8.352-.009-10.441.539a3.416 3.416 0 0 0-2.354 2.371c-.551 2.088-.556 6.419-.556 6.419s-.005 4.352.541 6.419a3.341 3.341 0 0 0 2.351 2.353c2.109.573 10.44.583 10.44.583s8.353.009 10.441-.537a3.356 3.356 0 0 0 2.356-2.35c.552-2.087.556-6.416.556-6.416s.027-4.353-.543-6.441zM13.328 20.007l.007-8 6.943 4.007-6.949 3.993z"/>
    </symbol>

    <symbol id="icon-logo-white" viewBox="0 0 144 32">
      <path fill="#fff" d="M14.456.07c8.769-.818 16.54 5.632 17.349 14.403s-5.649 16.534-14.42 17.334C8.627 32.606.877 26.159.068 17.401S5.699.887 14.456.07zm3.18 30.05c7.829-.94 13.412-8.051 12.467-15.879S22.044.834 14.216 1.784C6.395 2.733.823 9.839 1.767 17.66c.944 7.822 8.047 13.398 15.869 12.46z" style="fill:var(--color1, #fff)"/>
      <path fill="#fff" d="m22.175 7.644 1.834-.013c.036 5.294.038 10.589.008 15.883l-1.897.024-.003-9.947-.009-2.724c-1.06 2.011-2.262 3.944-3.408 5.905-.726 1.243-1.401 2.67-2.3 3.788a1.184 1.184 0 0 1-.67.033.952.952 0 0 1-.281-.119c-.485-.387-5.044-8.396-5.772-9.61.187 1.44.069 3.012.069 4.466l-.006 8.169-1.94.007c.06-5.286-.035-10.575.016-15.862l2.112.011c.939 1.679 1.947 3.323 2.921 4.983 1.035 1.764 2.043 3.548 3.142 5.272 1.119-2.043 2.37-4.023 3.572-6.018.852-1.413 1.657-2.902 2.611-4.248zM119.293 11.417a13.39 13.39 0 0 1 1.133-.028c1.399.025 2.827.773 3.784 1.764 1.193 1.235 1.747 2.958 1.707 4.657-.04 1.729-.689 3.373-1.961 4.56-1.128 1.051-2.574 1.613-4.12 1.555-1.77-.067-2.944-.812-4.131-2.079-.046.725-.032 1.459-.039 2.186.008 1.444.006 2.887-.006 4.332a9.38 9.38 0 0 1-2.024-.019c.11-2.235.013-4.525.014-6.766 0-3.334.053-6.677-.022-10.01l2.003-.008c-.039.744-.03 1.495-.041 2.24 1.085-1.354 1.99-2.007 3.703-2.384zm.868 10.719c1.245-.233 2.21-.741 2.94-1.816a4.805 4.805 0 0 0 .712-3.641c-.223-1.123-.888-2.184-1.866-2.797-.77-.483-1.602-.616-2.491-.59-1.234.233-2.235.673-2.974 1.749-.697 1.013-.997 2.456-.762 3.661a4.311 4.311 0 0 0 1.901 2.811c.79.497 1.624.64 2.541.624zM81.922 6.394c.326.335.428 1.221.622 1.695-2.102.882-5.148.701-6.839 2.315-1.011.966-1.252 2.301-1.273 3.632.904-1.117 1.895-2.022 3.378-2.27 1.498-.251 3.086.039 4.315.954 1.32.983 2.055 2.407 2.276 4.021.253 1.855-.209 3.603-1.347 5.085-.824.915-1.783 1.59-2.991 1.886-1.529.375-3.274.181-4.622-.655-1.537-.955-2.421-2.53-2.805-4.262-.573-2.589-.46-6.459 1.032-8.757 1.316-2.027 3.303-2.429 5.512-2.954.917-.218 1.821-.486 2.741-.689zm-3.494 15.754c1.301-.193 2.269-.505 3.078-1.623.793-1.096 1.05-2.48.804-3.798-.199-1.063-.758-2.036-1.671-2.637a3.723 3.723 0 0 0-1.877-.613c-1.266.142-2.308.404-3.151 1.448-.791.981-1.129 2.305-.954 3.548.159 1.134.779 2.224 1.71 2.9.63.457 1.306.657 2.062.775zM53.445 7.201c.74-.074 1.51-.039 2.254-.044-.1 5.448.019 10.911-.012 16.361l-1.962-.02.003-9.637c-.005-1.104-.028-2.21.039-3.313-1.808 3.339-3.439 6.825-5.419 10.062l-1.275-.007c-1.951-3.198-3.574-6.643-5.377-9.929.071 1.507.023 3.037.024 4.546l.004 8.298c-.654-.017-1.305.026-1.96-.005l.001-9.927c.001-2.134-.04-4.281.077-6.412l2.183.001c.62 1.064 1.148 2.204 1.711 3.299 1.308 2.542 2.602 5.112 4.013 7.598 2.073-3.516 3.715-7.302 5.697-10.873zM63.535 11.421c.299-.016.599-.027.899-.034 1.571-.026 3.136.403 4.268 1.541 1.515 1.522 1.666 3.441 1.666 5.469-3.269.042-6.543-.003-9.813.012.101.539.202 1.056.459 1.548a4.119 4.119 0 0 0 2.46 2.045c1.271.385 2.55.159 3.693-.471.384-.261.734-.566 1.091-.861.513.293 1.033.538 1.575.772-.807 1.088-1.847 1.882-3.163 2.242-1.685.461-3.74.28-5.258-.613a5.697 5.697 0 0 1-2.646-3.579c-.449-1.807-.198-3.783.782-5.372.945-1.532 2.271-2.289 3.986-2.698zm-2.959 5.448c1.619-.013 3.239-.018 4.858-.014l3.027.002c-.295-1.242-.591-2.394-1.747-3.121-.846-.532-1.871-.613-2.845-.532-1.051.243-1.937.721-2.537 1.648-.406.627-.586 1.301-.756 2.017zM104.206 11.417c.294-.015.587-.024.881-.029 1.566-.017 3.132.448 4.25 1.591 1.471 1.504 1.606 3.424 1.6 5.41-3.256.049-6.519.01-9.776.018.043.594.147 1.105.425 1.64.513.989 1.364 1.644 2.427 1.955 1.421.418 2.715.109 3.972-.588.307-.211.58-.47.858-.717.516.278 1.04.503 1.583.719-.851 1.119-1.911 1.93-3.286 2.279-1.71.434-3.674.268-5.2-.654-1.355-.818-2.284-2.166-2.64-3.702-.407-1.754-.123-3.771.857-5.292s2.321-2.256 4.049-2.63zm-3.063 5.448c1.55-.004 3.102-.026 4.652-.009l3.285-.002c-.341-1.277-.698-2.522-1.934-3.224-.765-.436-1.698-.51-2.562-.422-1.025.17-1.892.555-2.529 1.413-.505.679-.719 1.437-.914 2.245zM138.018 11.59c1.983-.093 3.995-.026 5.982-.019-.101 3.971-.011 7.968-.013 11.942l-2.043-.022-.002-4.08c-.976-.006-2.261-.197-3.192.025-.291.069-.343.216-.505.441-.689 1.223-1.457 2.403-2.149 3.627-.772.017-1.545.02-2.317.006.756-1.419 1.782-3.225 2.783-4.454a9.037 9.037 0 0 1-.353-.182c-.873-.482-1.54-1.256-1.796-2.228-.266-1.013-.121-2.169.421-3.068.73-1.213 1.874-1.68 3.183-1.988zm2.095 6.109c.604-.005 1.219.014 1.82-.03-.008-1.412-.004-2.824.011-4.237-1.198-.004-2.413-.036-3.609.029-.755.236-1.345.492-1.752 1.219-.27.484-.343 1.122-.16 1.647.176.509.585.866 1.065 1.083.811.366 1.756.295 2.625.287zM88.551 11.699c2.587-.093 5.197-.033 7.787-.038l-.012 11.849c-.645-.009-1.293-.037-1.933.051l-.009-10.037-1.098.044c-.98-.048-1.981.016-2.963.039-.027 2.389-.037 7.34-1.71 9.108-.835.881-1.777.972-2.916.981a32.104 32.104 0 0 0-.087-1.86c.297-.027.613-.048.903-.121 1.801-.454 1.832-6.405 1.877-7.905.018-.585-.112-1.636.161-2.112zM130.517 11.611l.265-.016c.031.043.077.079.096.129.089.233-.002 10.584-.002 11.781l-1.735.012-.128-.025c-.278-.502.001-10.366-.086-11.857.53.007 1.06-.011 1.589-.024zM128.891 7.142l1.996-.006c-.021.708-.005 1.417.005 2.126l-2.055.015c.03-.711.048-1.423.054-2.135z" style="fill:var(--color1, #fff)"/>
    </symbol>

    <symbol id="icon-favicon" viewBox="0 0 32 32">
      <path stroke-width=".667" d="M14.937 4.453c6.577-.614 12.405 4.224 13.012 10.802s-4.237 12.4-10.815 13c-6.569.6-12.381-4.236-12.987-10.804S8.37 5.065 14.938 4.453zm2.385 22.537c5.872-.705 10.059-6.038 9.35-11.909S20.628 5.026 14.757 5.738C8.892 6.45 4.712 11.779 5.42 17.645s6.035 10.049 11.902 9.345z"/>
      <path stroke-width=".667" d="m20.726 10.134 1.376-.009c.027 3.971.029 7.942.006 11.912l-1.423.018-.002-7.461-.007-2.043c-.795 1.508-1.697 2.958-2.556 4.429-.545.933-1.051 2.003-1.725 2.841a.888.888 0 0 1-.503.025.749.749 0 0 1-.211-.089c-.364-.29-3.783-6.297-4.329-7.208.14 1.08.052 2.259.052 3.349l-.004 6.127-1.455.005c.045-3.964-.026-7.931.012-11.896l1.584.008c.704 1.259 1.46 2.492 2.19 3.737.776 1.323 1.532 2.661 2.357 3.954.839-1.532 1.777-3.017 2.679-4.514.639-1.06 1.243-2.176 1.959-3.186z"/>
    </symbol>

    <symbol id="icon-logo-black" viewBox="0 0 144 32">
      <path d="M14.456.07c8.769-.818 16.54 5.632 17.349 14.403s-5.649 16.534-14.42 17.334C8.627 32.606.877 26.159.068 17.401S5.699.887 14.456.07zm3.18 30.05c7.829-.94 13.412-8.051 12.467-15.879S22.044.834 14.216 1.784C6.395 2.733.823 9.839 1.767 17.66c.944 7.822 8.047 13.398 15.869 12.46z"/>
      <path d="m22.175 7.645 1.834-.013c.036 5.294.038 10.589.008 15.883l-1.897.024-.003-9.947-.009-2.724c-1.059 2.011-2.262 3.944-3.408 5.905-.726 1.243-1.401 2.67-2.3 3.788a1.184 1.184 0 0 1-.67.033.977.977 0 0 1-.281-.118c-.485-.387-5.044-8.396-5.772-9.61.187 1.44.069 3.012.069 4.466l-.006 8.169-1.94.007c.06-5.286-.035-10.575.016-15.862l2.112.011c.939 1.679 1.947 3.323 2.921 4.983 1.035 1.763 2.043 3.548 3.142 5.272 1.119-2.043 2.37-4.023 3.572-6.018.852-1.413 1.657-2.902 2.611-4.248zM119.294 11.416a13.39 13.39 0 0 1 1.133-.028c1.399.025 2.827.773 3.784 1.764 1.193 1.235 1.747 2.958 1.707 4.657-.04 1.729-.689 3.373-1.961 4.56-1.128 1.051-2.574 1.613-4.12 1.555-1.77-.066-2.944-.812-4.131-2.079-.046.725-.032 1.459-.039 2.186.008 1.444.006 2.887-.006 4.332a9.317 9.317 0 0 1-2.024-.019c.11-2.235.013-4.525.014-6.766 0-3.334.053-6.677-.022-10.01l2.003-.008c-.039.744-.03 1.495-.041 2.24 1.085-1.354 1.99-2.007 3.703-2.384zm.867 10.72c1.245-.234 2.21-.741 2.94-1.816a4.804 4.804 0 0 0 .712-3.641c-.223-1.123-.888-2.183-1.866-2.797-.77-.483-1.602-.616-2.491-.59-1.234.233-2.235.673-2.974 1.749-.697 1.013-.997 2.456-.762 3.661a4.314 4.314 0 0 0 1.9 2.811c.79.497 1.624.64 2.541.624zM81.922 6.394c.326.335.428 1.221.622 1.695-2.102.882-5.149.701-6.839 2.315-1.011.966-1.252 2.301-1.273 3.632.904-1.117 1.895-2.022 3.378-2.27 1.498-.251 3.086.039 4.315.954 1.32.983 2.055 2.407 2.276 4.021.253 1.855-.209 3.603-1.347 5.085-.824.915-1.783 1.59-2.991 1.886-1.529.375-3.274.181-4.622-.655-1.537-.955-2.421-2.529-2.805-4.262-.573-2.589-.46-6.459 1.032-8.757 1.316-2.027 3.303-2.429 5.511-2.954.917-.218 1.821-.486 2.741-.689zm-3.494 15.753c1.301-.193 2.27-.505 3.078-1.623.793-1.096 1.05-2.48.804-3.798-.199-1.063-.759-2.036-1.671-2.637a3.723 3.723 0 0 0-1.878-.613c-1.266.142-2.308.404-3.151 1.448-.791.981-1.129 2.305-.955 3.548.159 1.134.779 2.224 1.71 2.9.63.457 1.306.657 2.062.775zM53.445 7.201c.74-.074 1.51-.039 2.254-.044-.1 5.448.019 10.911-.012 16.361l-1.962-.02.003-9.637c-.005-1.104-.028-2.211.039-3.313-1.808 3.339-3.439 6.825-5.419 10.062l-1.275-.007c-1.95-3.198-3.574-6.643-5.377-9.929.071 1.507.023 3.037.024 4.546l.004 8.298c-.654-.017-1.305.026-1.96-.005l.001-9.926c.001-2.134-.04-4.281.077-6.412l2.183.001c.62 1.064 1.148 2.204 1.711 3.299 1.308 2.542 2.602 5.112 4.013 7.598 2.073-3.516 3.715-7.302 5.697-10.873zM63.535 11.421c.299-.016.599-.027.899-.034 1.571-.026 3.136.403 4.268 1.541 1.515 1.522 1.665 3.441 1.666 5.469-3.269.042-6.543-.003-9.813.012.101.539.202 1.056.459 1.549a4.122 4.122 0 0 0 2.46 2.045c1.271.385 2.55.159 3.693-.471.384-.261.734-.566 1.091-.861.513.293 1.033.538 1.575.772-.807 1.088-1.847 1.882-3.163 2.242-1.685.461-3.739.28-5.257-.613a5.697 5.697 0 0 1-2.646-3.579c-.449-1.807-.198-3.783.782-5.372.945-1.532 2.271-2.289 3.986-2.699zm-2.959 5.448c1.619-.013 3.239-.018 4.858-.014l3.027.002c-.295-1.242-.591-2.394-1.747-3.121-.846-.532-1.871-.613-2.845-.532-1.051.243-1.937.721-2.537 1.648-.406.627-.586 1.301-.756 2.017zM104.206 11.417c.294-.015.587-.024.881-.029 1.567-.017 3.132.448 4.25 1.591 1.471 1.505 1.607 3.424 1.6 5.41-3.256.049-6.519.01-9.776.018.043.594.147 1.105.425 1.64.513.989 1.365 1.644 2.427 1.955 1.421.418 2.715.109 3.971-.588.307-.211.579-.47.858-.717.517.278 1.04.503 1.584.719-.851 1.119-1.911 1.93-3.286 2.279-1.71.434-3.674.268-5.2-.654-1.355-.818-2.284-2.166-2.64-3.702-.407-1.754-.123-3.771.857-5.292s2.321-2.256 4.049-2.63zm-3.063 5.448c1.55-.004 3.102-.026 4.652-.009l3.285-.002c-.341-1.277-.698-2.522-1.934-3.224-.765-.436-1.698-.51-2.562-.423-1.025.17-1.892.555-2.529 1.413-.505.679-.719 1.437-.914 2.245zM138.019 11.59c1.983-.093 3.995-.026 5.981-.019-.101 3.971-.011 7.968-.012 11.942l-2.044-.022-.001-4.08c-.976-.006-2.261-.197-3.192.025-.291.069-.343.216-.505.441-.689 1.223-1.456 2.403-2.148 3.627-.772.017-1.545.02-2.317.006.756-1.419 1.783-3.225 2.783-4.454a8.377 8.377 0 0 1-.353-.182c-.872-.481-1.54-1.256-1.795-2.228-.267-1.013-.121-2.169.42-3.068.731-1.213 1.875-1.68 3.184-1.988zm2.094 6.109c.603-.005 1.219.014 1.82-.03-.008-1.412-.004-2.824.011-4.237-1.197-.004-2.412-.037-3.609.029-.755.237-1.344.492-1.752 1.219-.269.484-.343 1.122-.16 1.647.176.509.585.866 1.065 1.083.812.367 1.756.295 2.625.287zM88.551 11.699c2.587-.093 5.197-.033 7.787-.038l-.012 11.85c-.645-.009-1.293-.037-1.933.051l-.009-10.037-1.098.044c-.98-.048-1.981.016-2.963.039-.027 2.389-.037 7.34-1.71 9.108-.834.881-1.777.972-2.916.981a32.104 32.104 0 0 0-.087-1.86c.297-.027.613-.048.903-.121 1.801-.454 1.832-6.405 1.878-7.905.018-.585-.112-1.636.161-2.112zM130.517 11.611l.265-.016c.032.043.077.079.096.129.089.233-.003 10.584-.002 11.781l-1.735.012-.128-.026c-.278-.502.001-10.366-.086-11.857.53.007 1.06-.011 1.589-.024zM128.891 7.142l1.996-.006c-.021.708-.005 1.417.005 2.126l-2.055.015c.03-.711.048-1.423.054-2.135z"/>
    </symbol>

    <symbol id="icon-star-fill" viewBox="0 0 32 32">
      <path d="M14.513 1.037a1.584 1.584 0 0 1 2.973 0l3.246 8.164c.232.583.756.982 1.358 1.032l8.426.707c1.428.12 2.006 1.983.919 2.958l-6.419 5.752a1.733 1.733 0 0 0-.519 1.67l1.961 8.6c.332 1.457-1.183 2.609-2.405 1.828l-7.213-4.609a1.551 1.551 0 0 0-1.679 0l-7.214 4.609c-1.222.781-2.738-.371-2.405-1.828l1.961-8.6a1.73 1.73 0 0 0-.519-1.67l-6.42-5.752c-1.088-.975-.509-2.838.919-2.958l8.426-.707a1.617 1.617 0 0 0 1.358-1.032l3.246-8.164z"/>
    </symbol>

    <symbol id="icon-star-half" viewBox="0 0 32 32">
      <path d="m31.829 11.907.128.421a.856.856 0 0 1-.223.893l-7.755 6.989 2.298 10.476a.886.886 0 0 1-.303.893l-.351.253a.721.721 0 0 1-.479.168.741.741 0 0 1-.415-.118l-8.728-5.608-8.68 5.608a.741.741 0 0 1-.415.118.73.73 0 0 1-.479-.168l-.399-.253a.884.884 0 0 1-.303-.893L8.023 20.21.284 13.237a.853.853 0 0 1-.239-.909l.176-.421a.79.79 0 0 1 .702-.589l10.196-.859 3.909-9.92A.815.815 0 0 1 15.794 0h.415a.785.785 0 0 1 .75.539l3.973 9.92 10.196.859a.792.792 0 0 1 .702.589zm-9.255 15.141-1.787-7.882 5.856-5.271-7.675-.64L16 5.744v17.078l6.574 4.227z"/>
    </symbol>

    <symbol id="icon-circle-down" viewBox="0 0 32 32">
      <path d="M32 16c0-8.837-7.163-16-16-16S0 7.163 0 16s7.163 16 16 16 16-7.163 16-16zM3 16C3 8.82 8.82 3 16 3s13 5.82 13 13-5.82 13-13 13S3 23.18 3 16z"/>
      <path d="m9.914 11.086-2.829 2.829 8.914 8.914 8.914-8.914-2.828-2.828-6.086 6.086z"/>
    </symbol>
    
  </defs>
</svg>
